<svg id="logo" data-name="logo" xmlns="http://www.w3.org/2000/svg" xmlns:xlink="http://www.w3.org/1999/xlink" viewBox="0 0 100.43 94.95">
    <defs>
        <style>.cls-1{fill:url(#linear-gradient);}.cls-2{fill:url(#linear-gradient-2);}.cls-3{fill:url(#linear-gradient-3);}</style>
        <linearGradient id="linear-gradient" x1="121.29" y1="510.25" x2="221.72" y2="510.25" gradientUnits="userSpaceOnUse">
            <stop offset="0" stop-color="#fe8c00" />
            <stop offset="1" stop-color="#ff5e00" />
        </linearGradient>
        <linearGradient id="linear-gradient-2" x1="67.9" y1="68.36" x2="82.1" y2="54.16" gradientUnits="userSpaceOnUse">
            <stop offset="0" stop-color="#ee6c2d" stop-opacity="0" />
            <stop offset="0.16" stop-color="#ed6b2d" stop-opacity="0.02" />
            <stop offset="0.31" stop-color="#e8692c" stop-opacity="0.09" />
            <stop offset="0.46" stop-color="#e1652a" stop-opacity="0.2" />
            <stop offset="0.61" stop-color="#d85f28" stop-opacity="0.35" />
            <stop offset="0.75" stop-color="#cb5826" stop-opacity="0.56" />
            <stop offset="0.9" stop-color="#bc4f23" stop-opacity="0.8" />
            <stop offset="1" stop-color="#af4820" />
        </linearGradient>
        <linearGradient id="linear-gradient-3" x1="67.87" y1="68.39" x2="82.07" y2="54.19" xlink:href="#linear-gradient-2" />
    </defs>
    <path class="cls-1" d="M220.51,507.3,213,499.82l0,0-14.24-14.25c-22.08-22.07-49-22.76-49-22.76H125.46a4.19,4.19,0,0,0-4.09,3.33,4.69,4.69,0,0,0-.08.84v86.6a4.6,4.6,0,0,0,.08.84,4.38,4.38,0,0,0,.63,1.49,5.1,5.1,0,0,0,.51.62,4.14,4.14,0,0,0,1.33.89,4,4,0,0,0,1.62.33h24.32S176.66,557,198.73,535h0L213,520.71l0,0,7.48-7.47a4.21,4.21,0,0,0,0-5.91Zm-35.14,14.28h0s-14.66,17.23-35.59,17.23h-9.57V481.7h9.67c20.88.05,35.49,17.22,35.49,17.22l11.33,11.33Z" transform="translate(-121.29 -462.78)" />
    <polygon class="cls-2" points="75.41 47.47 88.79 60.85 74.51 74.97 61.23 61.7 75.41 47.47" />
    <polygon class="cls-3" points="75.39 47.5 88.76 60.88 74.48 75 61.21 61.73 75.39 47.5" />
</svg>