<?xml version="1.0" encoding="UTF-8"?>
<svg width="332px" height="134px" viewBox="0 0 332 134" version="1.1" xmlns="http://www.w3.org/2000/svg" xmlns:xlink="http://www.w3.org/1999/xlink" id="decAddDocumentsEmpty">
    <title>Artboard Copy</title>
    <g id="Artboard-Copy" stroke="none" stroke-width="1" fill="none" fill-rule="evenodd">
        <g id="illustration---documents" transform="translate(3.000000, 8.000000)">
            <g id="envelope">
                <path d="M36.322314,64.2115385 L51.984702,64.2115385 C51.3903319,59.8452521 52.876257,56.192582 56.4424771,53.2535282 C60.5375926,49.9761808 65.3994857,50.7109178 68.0105545,51.8417961 C70.6216233,52.9726744 72.5607052,54.5264045 73.9048804,57.4582948 C74.4744291,58.6927336 74.8615075,59.7371256 75.0661157,60.591471" id="Cloud2Outline4" stroke="#C2E8FF" stroke-width="3" stroke-linecap="round"></path>
                <path d="M68.7299192,67.0090977 C69.6077104,63.9788013 71.4092322,61.9975471 74.1344848,61.0653351 C78.2223637,59.6670171 82.0985416,61.5292138 83.6468206,63.4029518 C85.1950996,65.2766898 85.6858887,66.7819166 85.97817,68.3527464 C86.1730242,69.3999663 86.2432529,70.610789 86.1888561,71.9852145 C89.6322276,71.8453692 91.9411146,72.5364966 93.1155172,74.0585966 C94.5359231,75.8778678 94.6816579,78.054109 94.1642793,79.656728 C93.6469008,81.259347 91.9208173,83.5961538 88.6829899,83.5961538 L23.0041322,83.5961538" id="Cloud2Outline3" stroke="#C2E8FF" stroke-width="3" stroke-linecap="round"></path>
                <line x1="14.5289256" y1="72.6923077" x2="69.0123967" y2="72.6923077" id="Cloud2Outline2" stroke="#C2E8FF" stroke-width="3" stroke-linecap="round"></line>
                <line x1="0" y1="72.6923077" x2="6.05371901" y2="72.6923077" id="Cloud2Outline1" stroke="#C2E8FF" stroke-width="3" stroke-linecap="round"></line>
                <g id="Group" transform="translate(88.178979, 0.129045)">
                    <path d="M0.931764663,10.342109 L0.931764663,63.6584552 L0.931764663,63.6584552 L144.14184,63.6584552 L144.14184,17.8228124 C144.14184,13.8463622 140.91829,10.6228124 136.94184,10.6228124 L124.234276,10.6228124 L124.234276,10.6228124 L42.5948828,10.9566047 C40.6415814,10.964591 38.7688617,10.178612 37.4063381,8.7789767 L34.0388796,5.31979719 C32.6834826,3.92748259 30.8228736,3.14210904 28.8797727,3.14210904 L8.13176466,3.14210904 C4.15531446,3.14210904 0.931764663,6.36565884 0.931764663,10.342109 Z" id="Path-2" fill="#C3E9FF"></path>
                    <path d="M2.17933884,7.2 L2.17933884,122.379232 L2.17933884,122.379232 L145.389414,122.379232 L145.389414,14.8326923 C145.389414,10.8562421 142.165864,7.63269231 138.189414,7.63269231 L125.48185,7.63269231 L125.48185,7.63269231 L43.8856013,7.97308644 C41.9069618,7.9813407 40.0121269,7.17495058 38.6462462,5.74335973 L35.2939493,2.22978936 C33.9352721,0.805748454 32.0528517,2.30297882e-15 30.0846301,0 L9.37933884,0 C5.40288864,7.30462051e-16 2.17933884,3.2235498 2.17933884,7.2 Z" id="Path-2" stroke="#8BD3F8" stroke-width="2.7" stroke-linejoin="round"></path>
                    <path d="M22.1895942,46.8547303 L22.1895942,23.617109 C22.1895942,20.1377151 25.0102002,17.317109 28.4895942,17.317109 L101.453387,17.317109 L101.453387,17.317109 L125.185981,39.9823237 L125.185981,47.0441908" id="Path-5" stroke="#8BD3F8" stroke-width="2.7" fill="#FFFFFF" stroke-linejoin="round"></path>
                    <path d="M101.453387,36.8611949 C101.453387,40.5148317 104.415244,43.4766896 108.068881,43.4766896 L123.557833,43.4766896 L123.557833,43.4766896 L123.557833,39.9823237 L106.184893,39.9823237 L101.453387,36.8611949 Z" id="Path-11" fill="#C2E9FF"></path>
                    <path d="M101.453387,17.317109 L101.453387,35.0239238 C101.453387,37.4675454 103.403527,39.4645886 105.846459,39.5226533 L125.185981,39.9823237 L125.185981,39.9823237 L101.453387,17.317109 Z" id="Path-6" stroke="#8BD3F8" stroke-width="2.7" stroke-linejoin="round"></path>
                    <path d="M9.99398035,46.9046549 L138.340675,46.9046549 C142.317125,46.9046549 145.540675,50.1282047 145.540675,54.1046549 L145.540675,122.141193 L145.540675,122.141193 L2.79398035,122.141193 L2.79398035,54.1046549 C2.79398035,50.1282047 6.01753015,46.9046549 9.99398035,46.9046549 Z" id="Rectangle" stroke="#8BD3F8" stroke-width="2.7" fill="#FFFFFF" stroke-linejoin="round"></path>
                    <path d="M11.6284845,50.1758088 L136.70617,50.1758088 C140.682621,50.1758088 143.90617,53.3993586 143.90617,57.3758088 L143.90617,122.141193 L143.90617,122.141193 L4.42848449,122.141193 L4.42848449,57.3758088 C4.42848449,53.3993586 7.65203429,50.1758088 11.6284845,50.1758088 Z" id="Rectangle" fill="#C3E9FF"></path>
                </g>
                <line x1="36.2617769" y1="123.758654" x2="292.334091" y2="123.758654" id="Path-8" stroke="#8CD3F8" stroke-width="2.7" stroke-linecap="round"></line>
                <line x1="11.7442149" y1="123.598662" x2="28.0892562" y2="123.598662" id="Path-8" stroke="#8CD3F8" stroke-width="2.7" stroke-linecap="round"></line>
            </g>
            <path d="M299.608049,34.902305 C299.201745,34.7455507 299,34.4446211 299,34.0004838 C299,33.5563465 299.201745,33.2554169 299.608049,33.0986626 C302.498158,32.157169 304.9951,30.5886581 307.100751,28.3921623 C309.203587,26.1966341 310.687113,23.6353458 311.549454,20.7063621 C311.701467,20.2360991 312.005491,20 312.462466,20 C312.918503,20 313.222527,20.2360991 313.37454,20.7063621 C314.287551,23.7398486 315.794537,26.3282303 317.900188,28.4705394 C320.003962,30.6157515 322.501842,32.157169 325.391951,33.0986626 C325.796379,33.2554169 326,33.5563465 326,34.0004838 C326,34.4446211 325.796379,34.7455507 325.391951,34.902305 C322.450233,35.842831 319.940154,37.4123095 317.861715,39.6078377 C315.782338,41.8043336 314.287551,44.3665895 313.37454,47.2936379 C313.222527,47.7648685 312.918503,48 312.462466,48 C312.005491,48 311.701467,47.7648685 311.549454,47.2936379 C310.687113,44.2630542 309.191388,41.6746726 307.062278,39.5294606 C304.93223,37.3861838 302.447487,35.842831 299.608049,34.902305 L299.608049,34.902305 Z" id="Path-Copy" fill="#C3E9FF"></path>
        </g>
    </g>
</svg>