
<svg id="dcIcon" version="1.1" xmlns="http://www.w3.org/2000/svg" xmlns:xlink="http://www.w3.org/1999/xlink" viewBox="0 0 1000 1000">
    <path fill="#C880FB" d="M329.7,45c-15.6,0-28.2,12.6-28.2,28.2v223.2v136.3v181.5c0,44.4,36,80.4,80.4,80.4h58.2  c7.5,0,13.6-6.1,13.6-13.6V432.7V296.4v-101c0-7.8,6.3-14.1,14.1-14.1h332.9c7.8,0,14.1,6.3,14.1,14.1v348.9  c0,7.8-6.3,14.1-14.1,14.1H697.7v136.3h225.2c15.6,0,28.2-12.6,28.2-28.2V73.2c0-15.6-12.6-28.2-28.2-28.2H329.7z"></path>
    <path fill="#C179F8" d="M559,296.4c-7.5,0-13.6,6.1-13.6,13.6v248.4v136.3v101c0,7.8-6.3,14.1-14.1,14.1H198.4  c-7.8,0-14.1-6.3-14.1-14.1V446.7c0-7.8,6.3-14.1,14.1-14.1h103.1V296.4H76.2c-15.6,0-28.2,12.6-28.2,28.2v593.3  c0,15.6,12.6,28.2,28.2,28.2h593.3c15.6,0,28.2-12.6,28.2-28.2V694.6V558.3V376.8c0-44.4-36-80.4-80.4-80.4H559z"></path>
</svg>