<?xml version="1.0" encoding="utf-8"?>
<!-- Generator: Adobe Illustrator 25.2.2, SVG Export Plug-In . SVG Version: 6.00 Build 0)  -->
<svg version="1.1" xmlns="http://www.w3.org/2000/svg" xmlns:xlink="http://www.w3.org/1999/xlink" x="0px" y="0px"
	 viewBox="0 0 64 64" style="enable-background:new 0 0 64 64;" xml:space="preserve">
<style type="text/css">
	.st0{fill:#039F4E;}
	.st1{fill:none;}
	.st2{opacity:0.8;fill:#FFFFFF;enable-background:new    ;}
	.st3{display:none;}
	.st4{display:inline;}
	.st5{fill:#FFFFFF;}
</style>
<g id="Calque_1">
	<path class="st0" d="M63.7,35C62,25.7,52.4,21.5,46,20.3V19h4c1.1,0,2-0.9,2-2s-0.9-2-2-2h-4.1c-0.5-2.8-2.9-5-5.9-5H6
		c-3.3,0-6,2.7-6,6v26c0,3.3,2.7,6,6,6h0.1c0.5,3.4,3.4,6,6.9,6s6.4-2.6,6.9-6h24.2c0.5,3.4,3.4,6,6.9,6c3.9,0,7-3.1,7-7
		c3.3,0,6-2.7,6-6v-6H63.7z M13,50c-1.7,0-3-1.3-3-3s1.3-3,3-3s3,1.3,3,3S14.7,50,13,50z M42,35v9H19.3c-1.1-2.4-3.5-4-6.3-4
		s-5.2,1.6-6.3,4H6c-1.1,0-2-0.9-2-2V16c0-1.1,0.9-2,2-2h34c1.1,0,2,0.9,2,2V35z M51,50c-1.7,0-3-1.3-3-3s1.3-3,3-3s3,1.3,3,3
		S52.7,50,51,50z M46,35V24.4c1.6,0.4,3.9,1,6.2,2.2c4.1,2.1,6.6,4.9,7.4,8.4H46z M61,43h-1v-4h1c1.1,0,2,0.9,2,2S62.1,43,61,43z"/>
	<rect y="0" class="st1" width="64" height="64"/>
	<polygon class="st2" points="48.6,19 40.6,19 40.6,39.8 6.4,39.8 6.4,15 39.9,15 46.8,15 53.2,15 53.2,8.3 -2.6,8.3 -2.6,54.5 
		66.6,54.5 66.6,19 	"/>
	<circle class="st0" cx="39.4" cy="17" r="2"/>
	<polygon class="st0" points="39.4,15 46.7,15 44.6,19 39.4,19 	"/>
	<g id="Calque_2_-_copie" class="st3">
		<g class="st4">
			<circle class="st0" cx="13" cy="47" r="7"/>
			<circle class="st5" cx="13" cy="47" r="3"/>
		</g>
		<g class="st4">
			<circle class="st0" cx="51" cy="47" r="7"/>
			<circle class="st5" cx="51" cy="47" r="3"/>
		</g>
	</g>
	<g id="Calque_3">
	</g>
</g>
<g id="Calque_2">
	<g>
		<path class="st0" d="M23.8,37c-0.7,0.4-1.4,0.8-2,1.1c-0.3-0.6-0.6-1.1-0.9-1.7c0.4-0.2,0.7-0.4,1.1-0.6c0.6-0.3,1.1-0.6,1.7-0.9
			c0.1-0.1,0.2-0.2,0.2-0.3c0-1.3,0-2.5,0-3.8c0,0,0-0.1,0-0.2c-0.1,0-0.2,0.1-0.3,0.1c-1,0.6-2.1,1.2-3.1,1.8
			c-0.2,0.1-0.2,0.2-0.2,0.4c0,1,0,1.9,0.1,2.9c0,0.2-0.1,0.3-0.3,0.3c-0.5,0-1.1,0-1.6,0c0-0.8,0-1.5,0-2.4
			c-0.8,0.4-1.4,0.8-2.2,1.2c-0.3-0.5-0.6-1.1-1-1.6c0.7-0.4,1.4-0.8,2.1-1.2c-0.7-0.4-1.3-0.8-2-1.2c0.3-0.5,0.6-1.1,1-1.6
			c0.1,0.1,0.2,0.1,0.3,0.2c0.8,0.5,1.6,1,2.4,1.4c0.1,0.1,0.2,0.1,0.3,0c1.1-0.6,2.3-1.3,3.4-1.9c0,0,0,0,0.1-0.1
			c-0.8-0.5-1.6-0.9-2.3-1.3c-0.3-0.2-0.7-0.4-1-0.6c-0.2-0.1-0.3-0.1-0.5,0c-0.8,0.5-1.6,1-2.4,1.5c-0.1,0.1-0.2,0.1-0.3,0.2
			c-0.3-0.5-0.6-1.1-1-1.6c0.7-0.4,1.3-0.8,2-1.2c-0.7-0.4-1.4-0.8-2.1-1.2c0.3-0.6,0.6-1.1,1-1.6c0.7,0.4,1.4,0.8,2.1,1.2
			c0-0.8,0-1.5,0-2.3c0.6,0,1.2,0,1.8,0c0,0,0.1,0.2,0.1,0.3c0,0.8,0,1.5-0.1,2.3c-0.1,0.6,0.1,0.9,0.7,1.2c0.9,0.4,1.7,1,2.6,1.5
			c0.1,0.1,0.2,0.1,0.3,0.2c0-0.2,0-0.3,0-0.4c0-1.1,0-2.3,0-3.4c0-0.2-0.1-0.3-0.3-0.4c-0.9-0.5-1.8-1-2.7-1.5
			c0.3-0.6,0.6-1.1,0.9-1.7c0.7,0.4,1.3,0.7,2,1.1c0-0.8,0-1.6,0-2.4c0.7,0,1.3,0,1.9,0c0,0.8,0,1.6,0,2.4c0.7-0.4,1.4-0.8,2.1-1.1
			c0.3,0.6,0.6,1.1,0.9,1.7c-0.4,0.2-0.8,0.4-1.1,0.6c-0.6,0.3-1.1,0.6-1.7,0.9c-0.1,0-0.2,0.2-0.2,0.2c0,1.3,0,2.5,0,3.8
			c0,0,0,0.1,0,0.1c0.1-0.1,0.2-0.1,0.3-0.2c1-0.6,2-1.2,3-1.7c0.2-0.1,0.3-0.3,0.3-0.5c0-0.9,0-1.8-0.1-2.7c0-0.2,0.1-0.3,0.3-0.3
			c0.5,0,1.1,0,1.6,0c0,0.7,0,1.5,0,2.2c0,0,0.1,0,0.1,0.1c0.7-0.4,1.4-0.8,2.1-1.2c0.3,0.6,0.6,1.1,1,1.6c-0.7,0.4-1.4,0.8-2.1,1.2
			c0.7,0.4,1.3,0.8,2,1.2c-0.3,0.5-0.6,1.1-1,1.6c-0.3-0.2-0.6-0.4-0.9-0.5c-0.6-0.4-1.2-0.7-1.8-1.1c-0.1-0.1-0.3-0.1-0.4,0
			c-1.1,0.6-2.2,1.2-3.3,1.9c0,0-0.1,0.1-0.1,0.1c0.6,0.4,1.2,0.7,1.8,1c0.5,0.3,1.1,0.6,1.6,0.9c0.2,0.1,0.3,0.1,0.4,0
			c0.7-0.5,1.5-0.9,2.2-1.3c0.2-0.1,0.3-0.2,0.5-0.3c0.3,0.5,0.6,1.1,1,1.6c-0.6,0.4-1.3,0.8-2,1.2c0.7,0.4,1.4,0.8,2.1,1.2
			c-0.3,0.6-0.6,1.1-0.9,1.6c-0.7-0.4-1.4-0.8-2.2-1.2c0,0.8,0,1.6,0,2.3c-0.6,0-1.2,0-1.8,0c0,0-0.1-0.2-0.1-0.3
			c0-0.8,0-1.5,0.1-2.3c0.1-0.7-0.1-1-0.7-1.3c-0.9-0.4-1.7-1-2.5-1.5c-0.1-0.1-0.2-0.1-0.3-0.2c0,0.1,0,0.2,0,0.3
			c0,1.2,0,2.4,0,3.7c0,0.2,0.1,0.3,0.2,0.4c0.9,0.5,1.8,1,2.8,1.5c-0.3,0.5-0.6,1.1-0.9,1.7c-0.7-0.4-1.3-0.7-2.1-1.1
			c0,0.8,0,1.6,0,2.4c-0.7,0-1.3,0-1.9,0C23.8,38.7,23.8,37.9,23.8,37z"/>
	</g>
</g>
</svg>
