<?xml version="1.0" encoding="utf-8"?>
<!-- Generator: Adobe Illustrator 25.2.2, SVG Export Plug-In . SVG Version: 6.00 Build 0)  -->
<svg version="1.1" id="Calque_1" xmlns="http://www.w3.org/2000/svg" xmlns:xlink="http://www.w3.org/1999/xlink" x="0px" y="0px"
	 viewBox="0 0 64 64" style="enable-background:new 0 0 64 64;" xml:space="preserve">
<style type="text/css">
	.st0{opacity:0.2;}
	.st1{fill:#039F4E;}
	.st2{fill:none;}
	.st3{fill:#FFFFFF;}
</style>
<g id="Calque_1_1_" class="st0">
	<path class="st1" d="M63.7,35C62,25.7,52.4,21.5,46,20.3V19h4c1.1,0,2-0.9,2-2s-0.9-2-2-2h-4.1c-0.5-2.8-2.9-5-5.9-5H6
		c-3.3,0-6,2.7-6,6v26c0,3.3,2.7,6,6,6h0.1c0.5,3.4,3.4,6,6.9,6s6.4-2.6,6.9-6h24.2c0.5,3.4,3.4,6,6.9,6c3.9,0,7-3.1,7-7
		c3.3,0,6-2.7,6-6v-6H63.7z M13,50c-1.7,0-3-1.3-3-3s1.3-3,3-3s3,1.3,3,3S14.7,50,13,50z M42,35v9H19.3c-1.1-2.4-3.5-4-6.3-4
		s-5.2,1.6-6.3,4H6c-1.1,0-2-0.9-2-2V16c0-1.1,0.9-2,2-2h34c1.1,0,2,0.9,2,2V35z M51,50c-1.7,0-3-1.3-3-3s1.3-3,3-3s3,1.3,3,3
		S52.7,50,51,50z M46,35V24.4c1.6,0.4,3.9,1,6.2,2.2c4.1,2.1,6.6,4.9,7.4,8.4H46z M61,43h-1v-4h1c1.1,0,2,0.9,2,2S62.1,43,61,43z"/>
	<rect y="0" class="st2" width="64" height="64"/>
</g>
<circle class="st1" cx="13" cy="47" r="7"/>
<circle class="st3" cx="13" cy="47" r="3"/>
<circle class="st1" cx="51" cy="47" r="7"/>
<circle class="st3" cx="51" cy="47" r="3"/>
</svg>
