<?xml version="1.0" encoding="utf-8"?>
<!-- Generator: Adobe Illustrator 25.2.2, SVG Export Plug-In . SVG Version: 6.00 Build 0)  -->
<svg version="1.1" xmlns="http://www.w3.org/2000/svg" xmlns:xlink="http://www.w3.org/1999/xlink" x="0px" y="0px"
	 viewBox="0 0 80.5 80.5" style="enable-background:new 0 0 80.5 80.5;" xml:space="preserve">
<style type="text/css">
	.st0{opacity:0.2;fill:#039F4E;}
	.st1{fill:none;}
	.st2{fill:#039F4E;}
	.st3{display:none;}
	.st4{display:inline;}
	.st5{fill:#FFFFFF;}
</style>
<g id="Calque_1">
	<path class="st0" d="M75.8,43.2c-1.7-9.3-11.3-13.5-17.7-14.7v-1.3h4c1.1,0,2-0.9,2-2s-0.9-2-2-2H58c-0.5-2.8-2.9-5-5.9-5h-34
		c-3.3,0-6,2.7-6,6v26c0,3.3,2.7,6,6,6h0.1c0.5,3.4,3.4,6,6.9,6s6.4-2.6,6.9-6h24.2c0.5,3.4,3.4,6,6.9,6c3.9,0,7-3.1,7-7
		c3.3,0,6-2.7,6-6v-6H75.8z M25.1,58.2c-1.7,0-3-1.3-3-3s1.3-3,3-3c1.7,0,3,1.3,3,3S26.8,58.2,25.1,58.2z M54.1,43.2v9H31.4
		c-1.1-2.4-3.5-4-6.3-4s-5.2,1.6-6.3,4h-0.7c-1.1,0-2-0.9-2-2v-26c0-1.1,0.9-2,2-2h34c1.1,0,2,0.9,2,2V43.2z M63.1,58.2
		c-1.7,0-3-1.3-3-3s1.3-3,3-3s3,1.3,3,3S64.8,58.2,63.1,58.2z M58.1,43.2V32.6c1.6,0.4,3.9,1,6.2,2.2c4.1,2.1,6.6,4.9,7.4,8.4H58.1z
		 M73.1,51.2h-1v-4h1c1.1,0,2,0.9,2,2S74.2,51.2,73.1,51.2z"/>
	<rect x="16.5" y="16.5" class="st1" width="64" height="64"/>
	<circle class="st2" cx="8.8" cy="47.9" r="3.3"/>
	<path class="st2" d="M10,45.4l-2-0.2l1.6-21c0-0.6,0.5-1,1.1-0.9l0,0c0.6,0,1,0.5,0.9,1.1L10,45.4z"/>
</g>
<g id="Calque_2_-_copie" class="st3">
	<g class="st4">
		<circle class="st2" cx="29.5" cy="63.5" r="7"/>
		<circle class="st5" cx="29.5" cy="63.5" r="3"/>
	</g>
	<g class="st4">
		<circle class="st2" cx="67.5" cy="63.5" r="7"/>
		<circle class="st5" cx="67.5" cy="63.5" r="3"/>
	</g>
</g>
<g id="Calque_3">
</g>
</svg>
