<?xml version="1.0" encoding="UTF-8"?>
<svg xmlns="http://www.w3.org/2000/svg" xmlns:xlink="http://www.w3.org/1999/xlink" width="267px" height="35px" viewBox="0 0 1367 179" version="1.1">
  <title>DC</title>
  <defs>
    <polygon id="path-1" points="-6.39999998e-05 178 1365.99994 178 1365.99994 -5.68434189e-14 -6.39999998e-05 -5.68434189e-14"></polygon>
    <linearGradient x1="0.00291120815%" y1="50.0029117%" x2="99.9951561%" y2="50.0029117%" id="linearGradient-3">
      <stop stop-color="#C177ED" offset="0%"></stop>
      <stop stop-color="#AE6CDD" offset="100%"></stop>
    </linearGradient>
    <linearGradient x1="24.0700586%" y1="50.0001777%" x2="99.6221359%" y2="50.0001777%" id="linearGradient-4">
      <stop stop-color="#D088FF" offset="0%"></stop>
      <stop stop-color="#BF77F7" offset="100%"></stop>
    </linearGradient>
    <linearGradient x1="76.5859385%" y1="49.9998578%" x2="21.3254647%" y2="49.9998578%" id="linearGradient-5">
      <stop stop-color="#D088FF" offset="0%"></stop>
      <stop stop-color="#BF77F7" offset="100%"></stop>
    </linearGradient>
  </defs>
  <g id="Page-1" stroke="none" stroke-width="1" fill="none" fill-rule="evenodd">
    <g id="Group" transform="translate(683.619047, 89.761904) scale(-1, 1) rotate(-180.000000) translate(-683.619047, -89.761904) translate(0.619047, 0.761904)">
      <g id="Clipped" transform="translate(0.000000, -0.000000)">
        <mask id="mask-2" fill="white">
          <use xlink:href="#path-1"></use>
        </mask>
        <g id="Path"></g>
        <g id="Group" mask="url(#mask-2)" fill="#2D2633" fill-rule="nonzero">
          <g transform="translate(238.333314, 11.333317)">
            <path d="M28.4237326,39.0982657 C42.0437323,39.0982657 52.2063987,42.5769323 58.9210652,49.5329321 C65.6303984,56.4929319 68.9863983,66.2369317 68.9863983,78.771598 C68.9863983,91.3035977 65.6303984,101.050264 58.9210652,108.008931 C52.2063987,114.966264 42.0437323,118.44493 28.4237326,118.44493 C24.3757327,118.44493 21.2450661,118.394264 19.0237329,118.298264 C18.3303995,118.266264 17.7023996,118.235597 17.1397329,118.20493 C15.5690663,118.118264 14.359733,116.82093 14.359733,115.247597 L14.359733,42.2929323 C14.359733,40.719599 15.5703996,39.4222657 17.1423996,39.3369323 C17.7050662,39.3062657 18.3317329,39.275599 19.0237329,39.2462657 C21.2450661,39.1449324 24.3757327,39.0982657 28.4237326,39.0982657 M84.2343979,78.771598 C84.2343979,69.8889316 82.8517313,62.1662651 80.090398,55.6022653 C77.3263981,49.0382654 73.4277315,43.6115989 68.3943983,39.3182657 C63.3623984,35.0275991 57.3410652,31.8182659 50.3330654,29.6955993 C43.3250656,27.5729326 35.6277324,26.5155993 27.2397327,26.5155993 C23.0943994,26.5155993 18.5277329,26.6889327 13.5463997,27.0329327 C9.4917331,27.314266 5.74773319,27.8049326 2.31306661,28.5115993 C0.950399976,28.7915993 -0.00026666666,30.0235992 -0.00026666666,31.4155992 L-0.00026666666,126.126264 C-0.00026666666,127.518263 0.950399976,128.750263 2.31439994,129.030263 C5.74773319,129.735597 9.4917331,130.22893 13.5463997,130.510263 C18.5277329,130.855597 23.0943994,131.02893 27.2397327,131.02893 C35.6277324,131.02893 43.3250656,129.967597 50.3330654,127.84493 C57.3410652,125.722264 63.3623984,122.515599 68.3943983,118.222264 C73.4277315,113.930264 77.3263981,108.502264 80.090398,101.938264 C82.8517313,95.3742643 84.2343979,87.6529311 84.2343979,78.771598" id="Shape"></path>
            <path d="M169.653462,31.9681325 C169.653462,30.5801326 168.708129,29.3827993 167.354796,29.0787993 C164.556129,28.4507993 161.153463,27.793466 157.144129,27.1041327 C151.962796,26.217466 145.966796,25.7747994 139.15613,25.7747994 C133.234797,25.7747994 128.250797,26.6387993 124.205464,28.365466 C120.157464,30.0881326 116.90013,32.5321325 114.433464,35.6921324 C111.965464,38.8494657 110.189464,42.5761323 109.105464,46.8707988 C108.017464,51.1614654 107.477464,55.9227986 107.477464,61.1534651 L107.477464,101.420131 C107.477464,103.056131 108.802797,104.381464 110.437464,104.381464 L118.28413,104.381464 C119.918797,104.381464 121.24413,103.056131 121.24413,101.420131 L121.24413,64.1147984 C121.24413,54.7374653 122.725464,48.0267988 125.685464,43.9814656 C128.646797,39.9334657 133.62813,37.9121324 140.637463,37.9121324 C142.117463,37.9121324 143.646796,37.9614657 145.226796,38.0601324 C146.80413,38.158799 148.28413,38.282799 149.66813,38.430799 C151.049463,38.5774657 152.306796,38.7281324 153.442796,38.8761324 C154.576129,39.022799 155.390796,39.1934657 155.884129,39.3934657 L155.884129,101.420131 C155.884129,103.056131 157.210796,104.381464 158.845463,104.381464 L166.692129,104.381464 C168.328129,104.381464 169.653462,103.056131 169.653462,101.420131 L169.653462,31.9681325 Z" id="Path"></path>
            <path d="M250.479327,65.7453317 C250.479327,74.7226648 248.259327,81.631998 243.817994,86.4693312 C239.376661,91.3039977 233.455327,93.7226643 226.052661,93.7226643 C221.908661,93.7226643 218.673995,93.5746643 216.356661,93.2786643 C215.168661,93.1266643 214.104661,92.961331 213.163328,92.7839977 C211.783328,92.5239977 210.804661,91.2893311 210.804661,89.8839978 L210.804661,45.1839989 C210.804661,44.1733322 211.317995,43.2479989 212.159328,42.6866656 C213.700661,41.6586656 215.667328,40.659999 218.059328,39.687999 C221.216661,38.403999 224.671328,37.7653324 228.421994,37.7653324 C232.367328,37.7653324 235.749994,38.479999 238.561994,39.9106657 C241.375327,41.3426656 243.669994,43.3173323 245.447327,45.8319989 C247.223327,48.3506655 248.50466,51.3119987 249.295327,54.7146653 C250.08466,58.1213319 250.479327,61.7959985 250.479327,65.7453317 M264.839327,65.7453317 C264.839327,59.9186652 264.073993,54.541332 262.54466,49.6079988 C261.013993,44.6733322 258.769994,40.427999 255.809994,36.8773324 C252.84866,33.3239992 249.221994,30.5599992 244.927327,28.5853326 C240.635327,26.6133327 235.724661,25.6239994 230.199328,25.6239994 C225.757994,25.6239994 221.833994,26.2173327 218.429995,27.402666 C217.109995,27.8613326 215.919328,28.3119993 214.857995,28.7559993 C212.925995,29.5653326 210.804661,28.0999993 210.804661,26.006666 L210.804661,2.97599993 C210.804661,1.3413333 209.479328,0.0159999996 207.844661,0.0159999996 L199.997995,0.0159999996 C198.363328,0.0159999996 197.037995,1.3413333 197.037995,2.97599993 L197.037995,99.6639975 C197.037995,101.051997 197.992662,102.246664 199.345995,102.553331 C202.156662,103.190664 205.457995,103.874664 209.251328,104.603997 C214.136661,105.541331 219.784661,106.009331 226.201994,106.009331 C232.123328,106.009331 237.452661,105.070664 242.189994,103.197331 C246.927327,101.321331 250.97266,98.6559975 254.32866,95.2026643 C257.683327,91.7479977 260.273993,87.5279978 262.10066,82.5453313 C263.925993,77.5613314 264.839327,71.9613315 264.839327,65.7453317" id="Shape"></path>
            <path d="M311.458659,28.5141326 C311.211992,27.035466 309.893326,25.939466 308.397326,26.0407993 C301.282659,26.5287993 296.139993,28.311466 292.966659,31.3981325 C289.413326,34.8541325 287.635993,40.2314657 287.635993,47.5354655 L287.635993,137.415463 C287.635993,138.856797 288.674659,140.088796 290.095993,140.33413 L297.941326,141.683463 C299.750659,141.99413 301.403992,140.600796 301.403992,138.764797 L301.403992,49.7554654 C301.403992,47.4834655 301.599992,45.6101322 301.995992,44.1287989 C302.389326,42.6487989 303.033326,41.4661323 303.921326,40.5781323 C304.809326,39.6874657 305.993326,39.0234657 307.474659,38.5781324 C308.246659,38.3474657 309.114659,38.1354657 310.074659,37.9434657 C311.659992,37.6287991 312.730659,36.1394658 312.465326,34.5461325 L311.458659,28.5141326 Z" id="Path"></path>
            <path d="M342.854791,27.4025326 L335.009458,27.4025326 C333.373458,27.4025326 332.048125,28.7278659 332.048125,30.3638659 L332.048125,101.421197 C332.048125,103.055864 333.373458,104.381197 335.009458,104.381197 L342.854791,104.381197 C344.489458,104.381197 345.816125,103.055864 345.816125,101.421197 L345.816125,30.3638659 C345.816125,28.7278659 344.489458,27.4025326 342.854791,27.4025326" id="Path"></path>
            <path d="M406.657457,25.6243994 C400.441457,25.6243994 394.98679,26.6137327 390.300124,28.5857326 C385.61079,30.5603992 381.66279,33.3243992 378.456124,36.8777324 C375.248124,40.428399 372.854791,44.6497322 371.277457,49.5337321 C369.697457,54.4190653 368.908124,59.8230652 368.908124,65.7457317 C368.908124,71.6670649 369.770791,77.0910647 371.498791,82.0283979 C373.224124,86.9603978 375.668124,91.2283977 378.826791,94.8323976 C381.984124,98.4337309 385.85879,101.247064 390.448124,103.271064 C395.037457,105.292397 400.144123,106.305731 405.769457,106.305731 C409.224123,106.305731 412.677456,106.009731 416.132123,105.417731 C418.62679,104.989731 421.044123,104.381731 423.385456,103.593731 C424.886789,103.087064 425.766789,101.532397 425.358789,100.000397 L423.801456,94.141731 C423.354789,92.461731 421.584123,91.561731 419.940123,92.1243994 C418.644123,92.5683977 417.25079,92.953731 415.76279,93.2790643 C413.04679,93.8710643 410.160123,94.165731 407.10279,94.165731 C399.404123,94.165731 393.505457,91.7470644 389.412124,86.9123978 C385.31479,82.0763979 383.268124,75.0190648 383.268124,65.7457317 C383.268124,61.5990651 383.73479,57.7990652 384.67479,54.3443986 C385.61079,50.8897321 387.092124,47.9283988 389.116124,45.4617322 C391.136124,42.9963989 393.72679,41.096399 396.888123,39.7630657 C400.045457,38.4297324 403.893457,37.7657324 408.43479,37.7657324 C412.084123,37.7657324 415.392123,38.1097324 418.353456,38.800399 C419.744123,39.1243994 420.992123,39.460399 422.098789,39.8057323 C423.821456,40.344399 425.605456,39.2537324 425.902789,37.4737324 L427.236123,29.4750659 C426.444123,28.9790659 425.310789,28.5123993 423.830789,28.067066 C422.350789,27.6257326 420.670789,27.2323993 418.797456,26.8843993 C416.921456,26.5377327 414.92279,26.243066 412.801456,25.995066 C410.677456,25.751066 408.63079,25.6243994 406.657457,25.6243994" id="Path"></path>
            <path d="M471.794655,37.3201324 C475.051988,37.3201324 477.938655,37.3947991 480.455988,37.5427991 C481.847988,37.6241324 483.110655,37.7441324 484.245321,37.9014657 C485.694655,38.102799 486.747988,39.3694657 486.747988,40.8321323 L486.747988,59.1827985 C486.747988,60.5641318 485.810655,61.7467985 484.467988,62.0721318 C483.739988,62.2481318 482.895988,62.4121318 481.935988,62.5614651 C479.715988,62.9054651 477.025321,63.0801318 473.867988,63.0801318 C471.794655,63.0801318 469.597322,62.9321318 467.279988,62.6347984 C464.959988,62.3387984 462.838655,61.7201318 460.914655,60.7841318 C458.990655,59.8467985 457.383989,58.5627985 456.102655,56.9347986 C454.818655,55.3067986 454.178655,53.1614653 454.178655,50.4961321 C454.178655,45.5601322 455.755989,42.1307989 458.915989,40.2081323 C462.073322,38.282799 466.366655,37.3201324 471.794655,37.3201324 M470.610655,106.305464 C476.137321,106.305464 480.799988,105.588131 484.599988,104.158797 C488.398654,102.728131 491.458654,100.704131 493.778654,98.0894642 C496.097321,95.4734643 497.750654,92.3654644 498.738654,88.7641311 C499.723988,85.1601312 500.218654,81.1881313 500.218654,76.8467981 L500.218654,31.2454659 C500.218654,29.7961326 499.183988,28.561466 497.753321,28.3267993 C497.009321,28.205466 496.178654,28.069466 495.259988,27.9201326 C493.135988,27.573466 490.745321,27.2547993 488.078654,26.957466 C485.414655,26.6627993 482.527988,26.3907993 479.418655,26.145466 C476.310655,25.8987994 473.223988,25.7747994 470.166655,25.7747994 C465.822655,25.7747994 461.825322,26.217466 458.175989,27.105466 C454.522655,27.9947993 451.365322,29.4001326 448.701322,31.3267992 C446.037322,33.2494658 443.963989,35.7907991 442.482656,38.9481324 C441.002656,42.1054656 440.262656,45.9081322 440.262656,50.3481321 C440.262656,54.5907986 441.125322,58.2427985 442.853322,61.3041318 C444.579989,64.3601317 446.923989,66.829465 449.885322,68.7054649 C452.845322,70.5801316 456.299989,71.9614649 460.247988,72.8494648 C464.194655,73.7374648 468.339988,74.1814648 472.683988,74.1814648 C474.063988,74.1814648 475.495988,74.1067981 476.975988,73.9601315 C478.455988,73.8107982 479.862655,73.6121315 481.195988,73.3667982 C482.527988,73.1214648 483.686655,72.8987982 484.674655,72.7014648 C485.659988,72.5027982 486.350655,72.3547982 486.747988,72.2561315 L486.747988,76.1067981 C486.747988,78.374798 486.499988,80.6214647 486.006655,82.8414646 C485.511988,85.0627979 484.623988,87.0361312 483.342655,88.7641311 C482.058655,90.4881311 480.306655,91.872131 478.086655,92.908131 C475.865321,93.9454643 472.979988,94.4627976 469.426655,94.4627976 C464.885322,94.4627976 460.914655,94.1414643 457.509322,93.5014643 C455.806655,93.1787977 454.318655,92.852131 453.046655,92.5174644 C451.335989,92.0694644 449.641322,93.2107977 449.390655,94.9627976 L448.599989,100.497464 C448.390655,101.969464 449.291989,103.353464 450.721322,103.768131 C452.391989,104.253464 454.530655,104.729464 457.139989,105.194797 C461.283988,105.936131 465.774655,106.305464 470.610655,106.305464" id="Shape"></path>
            <path d="M542.555453,104.381464 L565.799453,104.381464 C567.434119,104.381464 568.760786,103.056131 568.760786,101.420131 L568.760786,95.7947976 C568.760786,94.160131 567.434119,92.8347977 565.799453,92.8347977 L542.555453,92.8347977 C540.920786,92.8347977 539.59412,91.5094644 539.59412,89.8734644 L539.59412,57.3054652 C539.59412,53.4574653 539.891453,50.2734654 540.48212,47.7574655 C541.075453,45.2401322 541.96212,43.2641323 543.14612,41.8361323 C544.332786,40.4054657 545.812786,39.3934657 547.587453,38.8001324 C549.364786,38.2081324 551.43812,37.9121324 553.806119,37.9121324 C557.951453,37.9121324 561.283453,38.3814657 563.798119,39.3174657 C564.580786,39.6094657 565.290119,39.874799 565.924786,40.114799 C567.598119,40.7454656 569.422119,39.750799 569.828786,38.0094657 L571.148786,32.3627992 C571.488786,30.9107992 570.716786,29.4307993 569.316786,28.9161326 C568.027452,28.441466 566.410119,27.9121326 564.463453,27.3267993 C561.011453,26.2921327 557.062119,25.7747994 552.62212,25.7747994 C547.39012,25.7747994 543.072786,26.4401327 539.668787,27.7721326 C536.263453,29.1054659 533.524787,31.1041326 531.452787,33.7667992 C529.379453,36.4321324 527.92212,39.710799 527.084787,43.6121322 C526.244787,47.5094655 525.827454,52.0254654 525.827454,57.1574652 L525.827454,123.35213 C525.827454,124.793464 526.86612,126.025464 528.28612,126.269464 L536.131453,127.62013 C537.940787,127.930797 539.59412,126.537464 539.59412,124.701464 L539.59412,107.342797 C539.59412,105.706797 540.920786,104.381464 542.555453,104.381464" id="Path"></path>
            <path d="M633.929851,73.2946648 C635.669851,73.2946648 637.045851,74.7999981 636.897851,76.5346648 C636.489851,81.307998 634.972517,85.3359979 632.341851,88.6146645 C629.132518,92.6119977 624.716518,94.6119976 619.089851,94.6119976 C615.932518,94.6119976 613.145851,93.9919977 610.728518,92.761331 C608.308518,91.525331 606.261852,89.9213311 604.584518,87.9493311 C602.904518,85.9733312 601.597852,83.7053312 600.660518,81.1386646 C600.153852,79.751998 599.740518,78.3533314 599.421852,76.9386647 C599.000518,75.0759981 600.417852,73.2946648 602.328518,73.2946648 L633.929851,73.2946648 Z M584.153852,65.7453317 C584.153852,72.5546649 585.140519,78.4973314 587.115185,83.5826646 C589.089852,88.6639978 591.703185,92.8826643 594.961852,96.2386643 C598.217852,99.5933308 601.967185,102.110664 606.212518,103.787997 C610.453851,105.465331 614.799185,106.305331 619.240518,106.305331 C629.603184,106.305331 637.545851,103.071997 643.075184,96.6093309 C648.600517,90.1439977 651.364517,80.2986647 651.364517,67.074665 C651.364517,66.8173317 651.35385,65.9999984 651.335184,65.0959984 C651.300517,63.4839984 649.987184,62.1919984 648.375184,62.1919984 L601.832518,62.1919984 C600.012518,62.1919984 598.625852,60.5519985 598.893852,58.7506652 C599.833852,52.433332 602.025852,47.5106655 605.472518,43.9813322 C609.516518,39.8386657 615.835185,37.7653324 624.421851,37.7653324 C629.256518,37.7653324 633.327184,38.183999 636.635184,39.0226657 C638.245851,39.431999 639.663184,39.8346657 640.887184,40.231999 C642.611184,40.7906656 644.405851,39.6906657 644.703184,37.9026657 L645.652517,32.2173325 C645.889851,30.7879992 645.068517,29.4159993 643.703184,28.9293326 C642.052517,28.3399993 639.893851,27.7319993 637.225851,27.1053327 C633.029851,26.1213327 628.271184,25.6239994 622.941851,25.6239994 C616.228518,25.6239994 610.431185,26.638666 605.547185,28.6599993 C600.660518,30.6813326 596.639185,33.4719992 593.481852,37.0253324 C590.321852,40.5786657 587.979185,44.7973322 586.449852,49.6813321 C584.917852,54.5666653 584.153852,59.9186652 584.153852,65.7453317" id="Shape"></path>
            <path d="M756.914248,25.1819994 C750.298248,25.1819994 744.156915,26.364666 738.482248,28.7353326 C732.806248,31.1033326 727.872915,34.5553325 723.678249,39.097999 C719.482249,43.6353322 716.176915,49.2379988 713.760915,55.9006653 C711.339582,62.5619984 710.131582,70.1859982 710.131582,78.7713314 C710.131582,87.3566645 711.438249,94.9819976 714.055582,101.643331 C716.668915,108.304664 720.147582,113.904664 724.492915,118.444664 C728.832915,122.98333 733.867582,126.413997 739.591582,128.733997 C745.314248,131.05133 751.287581,132.212663 757.503581,132.212663 C761.355581,132.212663 764.856914,131.964663 768.016914,131.472663 C771.174247,130.977997 773.938247,130.361997 776.306247,129.621997 C778.674247,128.881997 780.69558,128.141997 782.37558,127.400663 C782.922247,127.15933 783.42758,126.925997 783.890247,126.700663 C785.254247,126.036664 785.864914,124.437997 785.334247,123.016664 L784.156914,119.856664 C783.538247,118.197997 781.634247,117.46733 780.04758,118.25533 C778.160914,119.192664 776.000914,120.11933 773.568914,121.03533 C769.766247,122.465997 765.056914,123.181999 759.430248,123.181999 C753.014248,123.181999 747.412915,122.09533 742.627581,119.925997 C737.839582,117.753997 733.818248,114.693997 730.562248,110.747331 C727.306248,106.797997 724.863582,102.109997 723.235582,96.6833309 C721.604915,91.2539977 720.791582,85.2326645 720.791582,78.621998 C720.791582,71.8139982 721.604915,65.6699984 723.235582,60.1939985 C724.863582,54.7139986 727.254248,50.0513321 730.414248,46.2019988 C733.571582,42.3539989 737.446248,39.3926657 742.035581,37.3206657 C746.623581,35.2473325 751.879581,34.2113325 757.802248,34.2113325 C764.315581,34.2113325 769.766247,34.8273325 774.158247,36.0619991 C776.974247,36.8513324 779.352914,37.6526657 781.29558,38.4646657 C782.874247,39.1246657 784.666247,38.2633324 785.19958,36.6379991 L786.964914,31.2513326 C786.272914,30.7566659 785.08758,30.1899992 783.410247,29.5486659 C781.734247,28.9059993 779.611581,28.2379993 777.046247,27.5499993 C774.479581,26.8619993 771.518247,26.292666 768.164914,25.8473327 C764.807581,25.404666 761.058248,25.1819994 756.914248,25.1819994" id="Path"></path>
            <path d="M807.539313,30.3633326 L807.539313,138.03933 C807.539313,139.46733 808.559313,140.69133 809.963313,140.949996 L813.664646,141.633996 C815.483313,141.968663 817.16198,140.572663 817.16198,138.721997 L817.16198,105.827331 C817.16198,103.861997 819.048646,102.423331 820.929979,102.992664 C822.863313,103.579331 824.815313,104.065997 826.784646,104.455331 C830.043313,105.095331 833.299313,105.417997 836.553979,105.417997 C842.476646,105.417997 847.411312,104.577997 851.357979,102.900664 C855.304645,101.220664 858.465979,98.8299975 860.833978,95.7219976 C863.201978,92.611331 864.855312,88.8859978 865.792645,84.5433312 C866.728645,80.2006647 867.200645,75.4139981 867.200645,70.1859982 L867.200645,30.3633326 C867.200645,28.7286659 865.873978,27.4019993 864.239312,27.4019993 L860.537978,27.4019993 C858.903312,27.4019993 857.577979,28.7286659 857.577979,30.3633326 L857.577979,67.0753317 C857.577979,72.5019982 857.207312,77.0913314 856.467312,80.841998 C855.727312,84.5926646 854.492645,87.6526645 852.765979,90.0206644 C851.037979,92.391331 848.744645,94.0926643 845.881979,95.1286643 C843.019312,96.1659976 839.416646,96.6833309 835.073979,96.6833309 C833.396646,96.6833309 831.595313,96.5353309 829.672646,96.2393309 C827.747313,95.9433309 825.945979,95.6219976 824.268646,95.2766643 C822.588646,94.9299976 821.085979,94.559331 819.752646,94.1659976 C818.419313,93.771331 817.555313,93.475331 817.16198,93.2779977 L817.16198,30.3633326 C817.16198,28.7286659 815.836646,27.4019993 814.200646,27.4019993 L810.500646,27.4019993 C808.864646,27.4019993 807.539313,28.7286659 807.539313,30.3633326" id="Path"></path>
            <path d="M942.07571,71.8142649 C943.842376,71.8142649 945.185043,73.3569315 945.02771,75.1169315 C944.449043,81.539598 942.637043,86.6555978 939.589043,90.4649311 C936.03571,94.9062643 931.001043,97.1262642 924.48771,97.1262642 C921.03171,97.1262642 917.950377,96.4355976 915.234377,95.0555976 C912.519711,93.6715977 910.151711,91.820931 908.130377,89.5035978 C906.106377,87.1835978 904.525044,84.4929312 903.391711,81.435598 C902.654377,79.4449313 902.114377,77.3902647 901.773044,75.2755981 C901.479711,73.4662648 902.879711,71.8142649 904.713044,71.8142649 L942.07571,71.8142649 Z M890.883711,65.7449317 C890.883711,72.4529315 891.846378,78.3009314 893.769044,83.2862646 C895.694378,88.2675978 898.210378,92.4382644 901.321044,95.7955976 C904.430377,99.1489309 907.983711,101.643597 911.979711,103.271597 C915.97571,104.898264 920.09571,105.714264 924.33971,105.714264 C933.717043,105.714264 941.190376,102.654264 946.769043,96.5355976 C952.342376,90.4142644 955.133043,80.991598 955.133043,68.2609316 C955.133043,67.9369316 955.099709,67.2275983 955.054376,66.454265 C954.961043,64.8929317 953.662376,63.6715984 952.098376,63.6715984 L904.242377,63.6715984 C902.475711,63.6715984 901.138377,62.1342651 901.294377,60.3755985 C901.982377,52.588932 904.235711,46.4835988 908.055711,42.0595989 C912.398377,37.0249324 919.306377,34.5062658 928.781043,34.5062658 C934.01171,34.5062658 938.158377,35.0009325 941.217043,35.9875991 C942.530376,36.4102658 943.689043,36.8075991 944.694376,37.1769324 C946.394376,37.8022657 948.245043,36.7969324 948.62371,35.0249325 L949.154376,32.5502659 C949.45971,31.1222659 948.70371,29.6902659 947.341043,29.1675993 C945.941043,28.630266 944.122376,28.042266 941.882376,27.402266 C938.082377,26.318266 933.61571,25.774266 928.486377,25.774266 C921.77171,25.774266 916.050377,26.7609327 911.314377,28.7355993 C906.575711,30.7075992 902.674377,33.4715992 899.618378,37.0249324 C896.557044,40.5782657 894.335711,44.7969322 892.957044,49.6809321 C891.571711,54.5675986 890.883711,59.9195985 890.883711,65.7449317" id="Shape"></path>
            <path d="M1011.97784,25.7747994 C1006.05651,25.7747994 1000.82317,26.7121327 996.285842,28.585466 C991.743175,30.4587992 987.971175,33.1507992 984.960509,36.6547991 C981.948509,40.1561323 979.655176,44.3521322 978.076509,49.2387988 C976.497842,54.1214653 975.708509,59.5254652 975.708509,65.4481317 C975.708509,71.4667982 976.523176,76.9441314 978.151176,81.878798 C979.779176,86.8134645 982.121842,91.0574644 985.183175,94.612131 C988.239175,98.1641309 991.940509,100.902797 996.285842,102.826797 C1000.62584,104.752131 1005.51251,105.714797 1010.94317,105.714797 C1015.08584,105.714797 1018.95784,105.366797 1022.56317,104.677464 C1024.84451,104.238797 1026.79917,103.721464 1028.42851,103.125464 C1029.87917,102.594797 1030.61517,100.984131 1030.16584,99.5054642 L1029.36317,96.8614642 C1028.87251,95.2454643 1027.14317,94.3654643 1025.55651,94.948131 C1024.36051,95.3881309 1023.08984,95.7694643 1021.74717,96.0921309 C1019.28184,96.6827976 1015.97384,96.9801309 1011.82984,96.9801309 C1003.34051,96.9801309 996.901842,94.2414643 992.509842,88.7641311 C988.117842,83.2854646 985.923175,75.5134648 985.923175,65.4481317 C985.923175,60.9081318 986.415175,56.7361319 987.404509,52.9387987 C988.389842,49.1374654 989.995175,45.8814655 992.215175,43.1694656 C994.435175,40.4521323 997.295175,38.3321324 1000.79917,36.8027991 C1004.30451,35.2694658 1008.57117,34.5067991 1013.60584,34.5067991 C1017.75251,34.5067991 1021.22984,34.9747991 1024.04317,35.9147991 C1025.17784,36.2921324 1026.18717,36.6494658 1027.07251,36.9881324 C1028.74717,37.6267991 1030.60317,36.6921324 1031.03784,34.9534658 L1031.66051,32.4601325 C1032.02584,30.9934659 1031.23917,29.5027993 1029.82851,28.9641326 C1028.24451,28.3601326 1026.26584,27.765466 1023.89651,27.1801327 C1020.09384,26.2427993 1016.12451,25.7747994 1011.97784,25.7747994" id="Path"></path>
            <path d="M1073.91877,71.5099982 C1072.60544,70.2606649 1072.68944,68.128665 1074.13344,67.0339983 C1076.70677,65.0819984 1079.29744,62.9259984 1081.90544,60.5633318 C1085.46011,57.3459986 1088.96411,53.859332 1092.41611,50.1059987 C1095.86811,46.3499988 1099.12144,42.4979989 1102.17477,38.5486657 C1103.91611,36.2966658 1105.50944,34.1206658 1106.95611,32.0206659 C1108.30544,30.0619992 1106.86944,27.4019993 1104.49211,27.4019993 L1100.06011,27.4019993 C1099.03744,27.4019993 1098.10411,27.9339993 1097.56411,28.8019993 C1095.44811,32.2086659 1093.04277,35.5579991 1090.35211,38.849999 C1087.29477,42.5913323 1084.08277,46.1126655 1080.72677,49.4153321 C1077.36677,52.719332 1074.00677,55.7326653 1070.64677,58.4526652 C1069.13611,59.6779985 1067.70277,60.7646651 1066.34677,61.7139985 C1064.39477,63.0819984 1061.71877,61.6419985 1061.71877,59.2579985 L1061.71877,30.3633326 C1061.71877,28.7286659 1060.39211,27.4019993 1058.75744,27.4019993 L1055.05611,27.4019993 C1053.42144,27.4019993 1052.09611,28.7286659 1052.09611,30.3633326 L1052.09611,138.03933 C1052.09611,139.46733 1053.11477,140.69133 1054.51877,140.949996 L1058.22011,141.633996 C1060.04011,141.968663 1061.71877,140.572663 1061.71877,138.721997 L1061.71877,77.7033314 C1061.71877,75.0926648 1064.83344,73.7419982 1066.71611,75.5486648 C1067.56677,76.3673314 1068.46677,77.2459981 1069.41477,78.185998 C1072.48544,81.229998 1075.61744,84.2953312 1078.80677,87.3753311 C1081.99211,90.4566644 1085.00277,93.4406643 1087.83611,96.3286643 C1090.25744,98.8006642 1092.34944,101.012664 1094.10411,102.968664 C1094.66677,103.593997 1095.44677,103.937997 1096.28944,103.937997 L1099.68277,103.937997 C1102.31744,103.937997 1103.65611,100.763331 1101.79611,98.8993309 C1100.87611,97.9779976 1099.91877,97.0259976 1098.92144,96.0459976 C1095.98944,93.1539977 1092.93344,90.1419977 1089.75344,87.0073312 C1086.57211,83.8726646 1083.44144,80.7873313 1080.35877,77.7499981 C1078.17611,75.5966648 1076.02811,73.5166648 1073.91877,71.5099982" id="Path"></path>
          </g>
        </g>
      </g>
      <path d="M569.021306,139.142647 C569.021306,134.590647 572.711972,130.899981 577.265306,130.899981 C581.817306,130.899981 585.509305,134.590647 585.509305,139.142647 C585.509305,143.69598 581.817306,147.385313 577.265306,147.385313 C572.711972,147.385313 569.021306,143.69598 569.021306,139.142647" id="Path" fill="url(#linearGradient-3)" fill-rule="nonzero"></path>
      <path d="M56.914652,168.161313 C54.2213187,168.161313 52.0373188,165.977313 52.0373188,163.28398 L52.0373188,124.602647 L52.0373188,100.991981 L52.0373188,69.5453154 C52.0373188,61.8479823 58.2773186,55.6066491 65.9746517,55.6066491 L76.0626515,55.6066491 C77.3599848,55.6066491 78.4133181,56.6586491 78.4133181,57.9573157 L78.4133181,100.991981 L78.4133181,124.602647 L78.4133181,142.109314 C78.4133181,143.457314 79.5053181,144.549314 80.8506514,144.549314 L138.539983,144.549314 C139.88665,144.549314 140.979983,143.457314 140.979983,142.109314 L140.979983,81.6586485 C140.979983,80.3106485 139.88665,79.2186485 138.539983,79.2186485 L120.683984,79.2186485 L120.683984,55.6066491 L159.713316,55.6066491 C162.406649,55.6066491 164.590649,57.7906491 164.590649,60.4853157 L164.590649,163.28398 C164.590649,165.977313 162.406649,168.161313 159.713316,168.161313 L56.914652,168.161313 Z" id="Path" fill="url(#linearGradient-4)" fill-rule="nonzero"></path>
      <path d="M96.658651,124.602647 C95.3599843,124.602647 94.3079844,123.550647 94.3079844,122.253314 L94.3079844,79.2186485 L94.3079844,55.6066491 L94.3079844,38.0999829 C94.3079844,36.7533163 93.2159844,35.659983 91.8693178,35.659983 L34.1813192,35.659983 C32.8333192,35.659983 31.7413193,36.7533163 31.7413193,38.0999829 L31.7413193,98.5519814 C31.7413193,99.898648 32.8333192,100.991981 34.1813192,100.991981 L52.0373188,100.991981 L52.0373188,124.602647 L13.0079864,124.602647 C10.3146531,124.602647 8.13065319,122.418647 8.13065319,119.725314 L8.13065319,16.9266501 C8.13065319,14.2333168 10.3146531,12.0493169 13.0079864,12.0493169 L115.805317,12.0493169 C118.499984,12.0493169 120.683984,14.2333168 120.683984,16.9266501 L120.683984,55.6066491 L120.683984,79.2186485 L120.683984,110.665314 C120.683984,118.362648 114.443984,124.602647 106.746651,124.602647 L96.658651,124.602647 Z" id="Path" fill="url(#linearGradient-5)" fill-rule="nonzero"></path>
      <g transform="translate(47.666652, 55.333316)" fill="#AD69E2" fill-rule="nonzero" id="Path">
        <polygon points="76.5026648 0.273333327 73.0186648 0.273333327 73.0186648 23.8853327 76.5026648 23.8853327"></polygon>
        <polygon points="4.36933322 45.6573322 0.885333311 45.6573322 0.885333311 69.2693316 4.36933322 69.2693316"></polygon>
      </g>
    </g>
  </g>
</svg>
